<?xml version="1.0" standalone="no"?>
<!DOCTYPE svg PUBLIC "-//W3C//DTD SVG 20010904//EN"
 "http://www.w3.org/TR/2001/REC-SVG-20010904/DTD/svg10.dtd">
<svg version="1.0" xmlns="http://www.w3.org/2000/svg"
 width="512.000000pt" height="512.000000pt" viewBox="0 0 512.000000 512.000000"
 preserveAspectRatio="xMidYMid meet">
<metadata>
Created by potrace 1.14, written by Peter Selinger 2001-2017
</metadata>
<g transform="translate(0.000000,512.000000) scale(0.100000,-0.100000)"
fill="#000000" stroke="none">
<path d="M3363 5095 c-109 -33 -174 -98 -345 -345 -63 -91 -144 -177 -199
-214 -46 -29 -77 -35 -261 -50 -26 -2 -52 -7 -58 -11 -34 -21 -169 4 -190 35
-3 4 -32 24 -65 43 -86 50 -109 77 -146 170 -100 252 -186 343 -336 351 -125
8 -216 -65 -341 -275 -95 -159 -141 -266 -156 -359 -3 -19 -8 -46 -11 -60 -15
-74 -18 -119 -20 -380 -3 -309 4 -376 49 -491 46 -116 44 -132 -39 -304 -107
-220 -115 -316 -41 -469 17 -35 23 -61 20 -90 -23 -242 -13 -345 46 -492 31
-77 32 -84 36 -264 3 -102 4 -221 3 -265 -5 -196 -4 -208 24 -340 9 -38 18
-83 21 -100 18 -103 49 -200 88 -285 62 -131 128 -209 243 -282 39 -25 90 -67
115 -93 238 -250 310 -294 497 -309 77 -6 161 -35 353 -122 185 -84 258 -70
405 81 44 45 148 151 231 236 158 162 230 257 290 385 24 50 60 102 101 147
69 76 96 125 111 203 15 83 -1 268 -29 342 -5 14 -8 27 -5 29 2 3 0 18 -4 35
-5 16 -12 64 -16 106 -3 43 -8 88 -11 102 -8 52 -5 138 10 230 9 52 18 138 21
190 9 143 8 140 85 249 123 173 132 282 43 509 -22 56 -38 102 -36 102 3 0 0
9 -6 20 -19 36 -61 214 -62 262 0 51 5 63 75 181 26 42 44 77 41 77 -4 0 -2 6
4 13 21 25 30 127 27 297 -1 96 -5 191 -8 210 -4 19 -11 73 -17 120 -13 101
-16 118 -29 190 -5 30 -12 71 -15 90 -30 176 -93 349 -163 451 -85 123 -214
179 -330 144z"/>
</g>
</svg>
